<?xml version="1.0"?>
<svg xmlns="http://www.w3.org/2000/svg" enable-background="new 0 0 60 60.001" height="512px" viewBox="0 0 60 60.001" width="512px"><g><path d="m59 60.001h-4c-.552 0-1-.448-1-1s.448-1 1-1h4c.552 0 1 .448 1 1s-.448 1-1 1z" data-original="#000000" class="active-path" data-old_color="#000000" fill="#5F7D95"/><path d="m24 60.001h-23c-.552 0-1-.448-1-1s.448-1 1-1h23c.552 0 1 .448 1 1s-.448 1-1 1z" data-original="#000000" class="active-path" data-old_color="#000000" fill="#5F7D95"/><path d="m48 60.001h-12c-.552 0-1-.448-1-1s.448-1 1-1h12c.552 0 1 .448 1 1s-.448 1-1 1z" data-original="#000000" class="active-path" data-old_color="#000000" fill="#5F7D95"/><path d="m30 60.001c-1.654 0-3-1.346-3-3v-4.82c0-5.296-2.857-10.154-7.644-12.996-6.618-3.93-10.583-11.151-10.346-18.846.335-10.872 9.103-19.795 19.961-20.314 5.813-.278 11.321 1.773 15.518 5.774 4.199 4.003 6.511 9.402 6.511 15.202 0 7.497-4.026 14.499-10.508 18.274-4.691 2.731-7.492 7.45-7.492 12.622v5.104c0 1.654-1.346 3-3 3zm.009-58c-.313 0-.627.007-.942.022-9.823.469-17.755 8.541-18.058 18.377-.215 6.968 3.375 13.507 9.368 17.065 5.4 3.206 8.623 8.707 8.623 14.716v4.82c0 .551.449 1 1 1s1-.449 1-1v-5.104c0-5.892 3.172-11.256 8.485-14.35 5.869-3.419 9.515-9.759 9.515-16.546 0-5.247-2.092-10.132-5.892-13.754-3.568-3.403-8.19-5.246-13.099-5.246z" data-original="#000000" class="active-path" data-old_color="#000000" fill="#5F7D95"/><path d="m30 38.001c-9.374 0-17-7.626-17-17s7.626-17 17-17 17 7.626 17 17-7.626 17-17 17zm0-32c-8.271 0-15 6.729-15 15s6.729 15 15 15 15-6.729 15-15-6.729-15-15-15z" data-original="#000000" class="active-path" data-old_color="#000000" fill="#5F7D95"/><path d="m38 31.001h-16c-.552 0-1-.448-1-1v-4c0-.552.448-1 1-1h16c.552 0 1 .448 1 1v4c0 .552-.448 1-1 1zm-15-2h14v-2h-14z" data-original="#000000" class="active-path" data-old_color="#000000" fill="#5F7D95"/><path d="m39 16.001h-18c-.44 0-.83-.289-.957-.71-.128-.421.036-.877.402-1.122l9-6c.336-.224.773-.224 1.109 0l9 6c.367.245.53.7.402 1.122-.126.421-.516.71-.956.71zm-14.697-2h11.395l-5.698-3.799z" data-original="#000000" class="active-path" data-old_color="#000000" fill="#5F7D95"/><path d="m24 27.001c-.552 0-1-.448-1-1v-11c0-.552.448-1 1-1s1 .448 1 1v11c0 .552-.448 1-1 1z" data-original="#000000" class="active-path" data-old_color="#000000" fill="#5F7D95"/><path d="m36 27.001c-.552 0-1-.448-1-1v-11c0-.552.448-1 1-1s1 .448 1 1v11c0 .552-.448 1-1 1z" data-original="#000000" class="active-path" data-old_color="#000000" fill="#5F7D95"/><path d="m32 27.001c-.552 0-1-.448-1-1v-11c0-.552.448-1 1-1s1 .448 1 1v11c0 .552-.448 1-1 1z" data-original="#000000" class="active-path" data-old_color="#000000" fill="#5F7D95"/><path d="m28 27.001c-.552 0-1-.448-1-1v-11c0-.552.448-1 1-1s1 .448 1 1v11c0 .552-.448 1-1 1z" data-original="#000000" class="active-path" data-old_color="#000000" fill="#5F7D95"/></g> </svg>
