<?xml version="1.0"?>
<svg xmlns="http://www.w3.org/2000/svg" viewBox="-31 1 511 511.99998" width="512px" height="512px"><g><path d="m225.445312 59.984375c-90.984374 0-164.960937 74.84375-164.960937 165.960937 0 90.957032 74 164.957032 164.960937 164.957032 90.957032 0 164.957032-74 164.957032-164.957032 0-90.992187-73.859375-165.960937-164.957032-165.960937zm0 300.925781c-74.421874 0-134.96875-60.546875-134.96875-134.964844 0-74.972656 60.546876-135.96875 134.96875-135.96875 74.417969 0 134.964844 60.996094 134.964844 135.96875 0 74.417969-60.546875 134.964844-134.964844 134.964844zm0 0" data-original="#000000" class="active-path" data-old_color="#000000" fill="#5F7D95"/><path d="m156.191406 150.960938-39.039062 78.078124 108.289062 105.527344c24.015625-23.398437 85.109375-82.9375 108.292969-105.527344l-39.039063-78.078124zm119.96875 29.996093 14.996094 29.992188h-131.425781l14.996093-29.992188zm-65.710937 97.117188-38.109375-37.132813h38.105468v37.132813zm29.992187 0v-37.132813h38.105469zm0 0" data-original="#000000" class="active-path" data-old_color="#000000" fill="#5F7D95"/><path d="m225.445312 0c-124.078124 0-224.945312 101.703125-224.945312 225.945312 0 105.429688 73.339844 195.363282 173.410156 218.949219l51.535156 67.105469 51.53125-67.105469c100.207032-23.613281 173.410157-113.652343 173.410157-218.949219 0-124.0625-100.699219-225.945312-224.941407-225.945312zm39.894532 416.757812-5.445313 1.136719-34.449219 44.863281-34.453124-44.863281-5.441407-1.136719c-89.847656-18.757812-155.058593-99.003906-155.058593-190.8125 0-108.050781 87.457031-195.953124 194.953124-195.953124 107.496094 0 194.949219 87.902343 194.949219 195.953124 0 91.804688-65.210937 172.054688-155.054687 190.8125zm0 0" data-original="#000000" class="active-path" data-old_color="#000000" fill="#5F7D95"/></g> </svg>
