<?xml version="1.0"?>
<svg xmlns="http://www.w3.org/2000/svg" height="512px" viewBox="-57 0 512 512" width="512px"><g><path d="m235.164062 124.601562h-50.722656c-2.753906 0-5.285156 1.507813-6.597656 3.925782l-40.4375 74.695312c-1.257812 2.328125-1.199219 5.144532.15625 7.414063 2.296875 3.847656 6.351562 3.628906 6.453125 3.65625l34.707031-.050781-23.210937 56.378906c-3.132813 7.613281 6.558593 13.859375 12.25 8.148437l90.753906-91.054687c2.140625-2.148438 2.777344-5.371094 1.617187-8.167969-1.164062-2.800781-3.898437-4.625-6.929687-4.625h-37.269531l25.492187-38.695313c3.273438-4.964843-.277343-11.625-6.261719-11.625zm-39.414062 53.695313c-3.273438 4.964844.28125 11.625 6.261719 11.625h33.128906l-51.421875 51.589844 13.144531-31.933594c2.03125-4.929687-1.597656-10.355469-6.933593-10.355469-.164063 0-33.203126.050782-33.328126.050782l32.304688-59.675782h32.332031zm0 0" data-original="#000000" class="active-path" data-old_color="#000000" fill="#5F7D95"/><path d="m191.105469 393.175781v19.792969c0 4.140625 3.359375 7.5 7.5 7.5s7.5-3.359375 7.5-7.5v-19.792969c0-4.144531-3.359375-7.5-7.5-7.5s-7.5 3.355469-7.5 7.5zm0 0" data-original="#000000" class="active-path" data-old_color="#000000" fill="#5F7D95"/><path d="m198.605469 0c-109.511719 0-198.605469 89.09375-198.605469 198.605469 0 109.277343 87.59375 313.394531 198.605469 313.394531 73.453125 0 130.234375-86.886719 159.800781-154.136719 1.667969-3.792969-.054688-8.21875-3.847656-9.882812-3.789063-1.667969-8.214844.054687-9.882813 3.84375-26.683593 60.695312-80.015625 145.175781-146.070312 145.175781-99.875 0-183.605469-196.027344-183.605469-298.394531 0-101.242188 82.363281-183.605469 183.605469-183.605469 101.238281 0 183.605469 82.363281 183.605469 183.605469 0 35.429687-9.984376 82.207031-27.386719 128.347656-1.464844 3.875.492187 8.199219 4.367187 9.664063 3.878906 1.460937 8.207032-.496094 9.667969-4.371094 18.015625-47.765625 28.351563-96.472656 28.351563-133.640625 0-109.511719-89.09375-198.605469-198.605469-198.605469zm0 0" data-original="#000000" class="active-path" data-old_color="#000000" fill="#5F7D95"/><path d="m326.847656 202.789062c0-70.714843-57.527344-128.242187-128.242187-128.242187-51.054688 0-97.222657 30.253906-117.621094 77.078125-1.652344 3.796875.085937 8.21875 3.882813 9.871094 3.796874 1.652344 8.21875-.085938 9.871093-3.882813 18.011719-41.347656 58.78125-68.066406 103.867188-68.066406 62.441406 0 113.242187 50.800781 113.242187 113.242187 0 62.441407-50.800781 113.242188-113.242187 113.242188-62.445313 0-113.242188-50.800781-113.242188-113.246094 0-7.199218.6875-14.433594 2.046875-21.503906.78125-4.066406-1.882812-8-5.949218-8.78125-4.074219-.78125-8 1.882812-8.78125 5.949219-1.539063 8-2.320313 16.1875-2.320313 24.335937 0 70.714844 57.53125 128.246094 128.246094 128.246094 70.714843 0 128.242187-57.53125 128.242187-128.242188zm0 0" data-original="#000000" class="active-path" data-old_color="#000000" fill="#5F7D95"/></g> </svg>
