<?xml version="1.0"?>
<svg xmlns="http://www.w3.org/2000/svg" xmlns:xlink="http://www.w3.org/1999/xlink" version="1.1" id="Layer_1" x="0px" y="0px" viewBox="0 0 512 512" style="enable-background:new 0 0 512 512;" xml:space="preserve" width="512px" height="512px"><g><g>
	<g>
		<path d="M496,108H273.6l-72.8-71.2H0V124v335.2c0,8.8,7.2,16,16,16h480c8.8,0,16-7.2,16-16V124C512,115.2,504.8,108,496,108z     M32,68.8h156l40,39.2H32V68.8z M480,443.2H32V160v-19.2h448V443.2z" data-original="#000000" class="active-path" data-old_color="#000000" fill="#5F7D95"/>
	</g>
</g><g>
	<g>
		<path d="M256.8,162.4c-54.4,0-92,36.8-92,93.6c0,44,57.6,121.6,69.6,136.8l21.6,28.8l22.4-28.8c20.8-28,69.6-96,69.6-136.8    C348,200,311.2,162.4,256.8,162.4z M256,368.8c-24.8-33.6-60-88-60-113.6c0.8-38.4,22.4-61.6,60-61.6c37.6,0,59.2,23.2,59.2,61.6    C315.2,278.4,285.6,328,256,368.8z" data-original="#000000" class="active-path" data-old_color="#000000" fill="#5F7D95"/>
	</g>
</g><g>
	<g>
		<path d="M256,230.4c-13.6,0-25.6,11.2-25.6,25.6c0,14.4,12,25.6,25.6,25.6c13.6,0,25.6-11.2,25.6-25.6    C281.6,241.6,269.6,230.4,256,230.4z" data-original="#000000" class="active-path" data-old_color="#000000" fill="#5F7D95"/>
	</g>
</g></g> </svg>
