<?xml version="1.0"?>
<svg xmlns="http://www.w3.org/2000/svg" xmlns:xlink="http://www.w3.org/1999/xlink" version="1.1" id="Capa_1" x="0px" y="0px" viewBox="0 0 512.001 512.001" style="enable-background:new 0 0 512.001 512.001;" xml:space="preserve" width="512px" height="512px"><g><g>
	<g>
		<path d="M412.11,500.05c-0.13-0.64-0.319-1.27-0.569-1.88c-0.25-0.601-0.561-1.18-0.92-1.72c-0.37-0.551-0.79-1.061-1.25-1.521    c-0.46-0.46-0.971-0.88-1.52-1.25c-0.54-0.36-1.12-0.66-1.72-0.91c-0.61-0.25-1.24-0.45-1.87-0.569c-1.29-0.261-2.62-0.261-3.91,0    c-0.64,0.119-1.27,0.319-1.87,0.569c-0.609,0.25-1.189,0.55-1.729,0.91c-0.55,0.37-1.06,0.79-1.521,1.25    c-0.46,0.46-0.88,0.97-1.239,1.521c-0.36,0.54-0.671,1.119-0.921,1.72c-0.25,0.61-0.439,1.24-0.569,1.88s-0.2,1.3-0.2,1.95    c0,0.649,0.07,1.31,0.2,1.95s0.319,1.27,0.569,1.869c0.25,0.61,0.561,1.19,0.921,1.73c0.359,0.55,0.779,1.06,1.239,1.52    c0.46,0.461,0.971,0.881,1.521,1.24c0.54,0.36,1.12,0.67,1.729,0.92c0.601,0.25,1.23,0.45,1.87,0.57c0.641,0.13,1.3,0.2,1.95,0.2    s1.31-0.07,1.96-0.2c0.63-0.12,1.26-0.32,1.87-0.57c0.6-0.25,1.18-0.56,1.72-0.92c0.55-0.359,1.061-0.779,1.52-1.24    c0.46-0.46,0.88-0.97,1.25-1.52c0.359-0.54,0.67-1.12,0.92-1.73c0.25-0.6,0.439-1.229,0.569-1.869    c0.12-0.641,0.19-1.301,0.19-1.95C412.3,501.35,412.23,500.69,412.11,500.05z" data-original="#000000" class="active-path" data-old_color="#000000" fill="#5F7D95"/>
	</g>
</g><g>
	<g>
		<path d="M364.519,492h-84.196c17.723-18.122,46.582-49.19,75.746-87.228c62.505-81.52,94.197-152.346,94.197-210.507    C450.267,87.147,363.119,0,256.001,0S61.735,87.147,61.735,194.266c0,57.95,31.691,128.71,94.194,210.315    c28.871,37.694,58.012,69.119,75.844,87.42H109.698c-5.523,0-10,4.478-10,10c0,5.522,4.477,10,10,10h254.82    c5.522,0,10-4.478,10-10C374.518,496.479,370.041,492,364.519,492z M256.001,393.402c-5.523,0-10,4.478-10,10v74.516    C201.048,431.686,81.735,299.092,81.735,194.266C81.735,98.175,159.91,20,256.001,20s174.266,78.175,174.266,174.266    c0,105.163-119.321,237.555-164.266,283.688v-74.552C266.001,397.88,261.523,393.402,256.001,393.402z" data-original="#000000" class="active-path" data-old_color="#000000" fill="#5F7D95"/>
	</g>
</g><g>
	<g>
		<path d="M256.001,42.848c-83.14,0-150.781,67.641-150.781,150.781c0,45.111,19.957,87.483,54.753,116.252    c8.46,6.995,17.681,13.064,27.403,18.039c9.782,5.006,20.111,8.909,30.755,11.657c0.338,0.087,0.672,0.186,1.01,0.271    c0.04,0.01,0.079,0.018,0.118,0.028c1.533,0.383,3.072,0.744,4.617,1.079c0.824,0.181,1.691,0.36,2.636,0.545    c0.531,0.104,1.079,0.21,1.671,0.321c9.107,1.711,18.466,2.579,27.818,2.579c10.825,0,21.628-1.158,32.085-3.438    c2.996-0.645,6.101-1.422,9.232-2.31c0.002,0,0.003,0,0.005-0.001c1.635-0.464,3.258-0.961,4.872-1.479    c13.695-4.391,26.661-10.717,38.597-18.85c3.894-2.647,7.678-5.489,11.237-8.441c34.796-28.768,54.753-71.141,54.753-116.252    C406.782,110.488,339.141,42.848,256.001,42.848z M225.924,317.878c0,0.993-0.155,1.971-0.453,2.911    c-0.306-0.073-0.614-0.139-0.919-0.215c-0.364-0.087-0.727-0.179-1.089-0.272c-0.975-0.249-1.946-0.509-2.914-0.781    c-0.268-0.075-0.537-0.146-0.804-0.223c-1.212-0.348-2.419-0.714-3.62-1.097c-0.264-0.084-0.527-0.174-0.79-0.26    c-0.954-0.311-1.904-0.633-2.85-0.966c-0.355-0.125-0.71-0.251-1.064-0.379c-0.978-0.354-1.951-0.719-2.92-1.096    c-0.218-0.085-0.439-0.165-0.657-0.252c-1.169-0.462-2.33-0.943-3.485-1.439c-0.291-0.125-0.579-0.255-0.869-0.382    c-0.535-0.235-1.066-0.48-1.598-0.722v-71.733h24.032V317.878z M325.17,304.638c-0.004,0.004-0.009,0.008-0.014,0.011    c-0.013,0.008-0.027,0.016-0.04,0.024c-1.307,0.815-2.632,1.598-3.964,2.366c-0.307,0.177-0.614,0.353-0.922,0.527    c-1.33,0.751-2.669,1.484-4.022,2.186c-0.177,0.092-0.357,0.179-0.535,0.27c-1.232,0.633-2.475,1.243-3.726,1.835    c-0.301,0.142-0.601,0.287-0.903,0.427c-1.371,0.636-2.752,1.25-4.144,1.837c-0.273,0.115-0.548,0.225-0.821,0.338    c-1.241,0.514-2.49,1.009-3.747,1.484c-0.266,0.1-0.53,0.205-0.797,0.304c-0.135,0.05-0.272,0.093-0.408,0.143v-57.809h24.043    V304.638z M325.17,238.582h-31.609v-87.306c0-16.318,14.087-29.651,31.609-30.15V238.582z M345.171,289.291v-40.709    c0-0.007-0.001-0.013-0.001-0.019V111.112c0-5.522-4.478-10-10-10h-8.981c-29.02,0-52.628,22.504-52.628,50.165v97.306    c0,4.682,3.223,8.601,7.567,9.689v59.607c0,1.358,0.105,2.704,0.287,4.035c-11.799,2.329-24.06,3.014-36.121,2.038    c0.413-1.981,0.63-4.013,0.63-6.073v-86.906c0-5.522-4.478-10-10-10h-12.016v-23.497c21.169-4.389,37.077-22.402,37.077-43.904    v-39.943c0-5.522-4.478-10-10-10c-5.522,0-10,4.478-10,10v21.842h-17.077v-25.449c0-5.522-4.477-10-10-10c-5.522,0-10,4.478-10,10    v25.449h-17.077v-21.842c0-5.522-4.478-10-10-10c-5.522,0-10,4.478-10,10v39.943c0,21.502,15.908,39.515,37.077,43.904v23.497    h-12.017c-5.522,0-10,4.478-10,10v70.417c-3.153-2.173-6.219-4.479-9.175-6.923c-30.185-24.956-47.496-61.71-47.496-100.838    c0-72.113,58.668-130.781,130.781-130.781s130.781,58.668,130.781,130.781C386.782,230.132,371.71,264.565,345.171,289.291z     M213.908,178.506c-14.237,0-25.942-10.171-26.999-23.036h53.998C239.85,168.335,228.145,178.506,213.908,178.506z" data-original="#000000" class="active-path" data-old_color="#000000" fill="#5F7D95"/>
	</g>
</g><g>
	<g>
		<path d="M265.8,363.66c-0.129-0.64-0.32-1.261-0.57-1.87c-0.25-0.6-0.56-1.181-0.92-1.721c-0.359-0.55-0.779-1.06-1.24-1.52    c-2.319-2.33-5.779-3.39-9.02-2.74c-0.64,0.13-1.27,0.32-1.88,0.57c-0.601,0.25-1.18,0.56-1.72,0.92    c-0.551,0.37-1.061,0.78-1.52,1.25c-0.46,0.46-0.88,0.97-1.25,1.52c-0.36,0.54-0.67,1.12-0.92,1.721    c-0.25,0.609-0.44,1.229-0.57,1.87c-0.13,0.649-0.189,1.3-0.189,1.96c0,0.649,0.06,1.31,0.189,1.949    c0.13,0.641,0.33,1.271,0.58,1.87c0.25,0.6,0.561,1.181,0.92,1.73c0.36,0.54,0.78,1.06,1.24,1.52c0.46,0.46,0.97,0.87,1.52,1.24    c0.54,0.36,1.119,0.67,1.72,0.92c0.61,0.25,1.24,0.44,1.88,0.57s1.3,0.19,1.95,0.19c2.63,0,5.21-1.06,7.069-2.92    c1.86-1.859,2.931-4.44,2.931-7.069C266,364.96,265.93,364.31,265.8,363.66z" data-original="#000000" class="active-path" data-old_color="#000000" fill="#5F7D95"/>
	</g>
</g></g> </svg>
