<?xml version="1.0"?>
<svg xmlns="http://www.w3.org/2000/svg" viewBox="0 0 64 64" width="512px" height="512px"><g><g id="Location"><path d="M32,43A18,18,0,1,1,50,25,18.021,18.021,0,0,1,32,43ZM32,9A16,16,0,1,0,48,25,16.019,16.019,0,0,0,32,9Z" data-original="#000000" class="active-path" data-old_color="#000000" fill="#5F7D95"/><path d="M32,39A14.015,14.015,0,0,1,18,25a1,1,0,0,1,2,0A12.013,12.013,0,0,0,32,37a1,1,0,0,1,0,2Z" data-original="#000000" class="active-path" data-old_color="#000000" fill="#5F7D95"/><path d="M45,26a1,1,0,0,1-1-1A12.013,12.013,0,0,0,32,13a1,1,0,0,1,0-2A14.015,14.015,0,0,1,46,25,1,1,0,0,1,45,26Z" data-original="#000000" class="active-path" data-old_color="#000000" fill="#5F7D95"/><path d="M39.89,50.567C46.42,43.571,55,32.882,55,25A23,23,0,0,0,9,25c0,7.882,8.58,18.571,15.11,25.567C20.314,51.151,14,52.628,14,56c0,3.939,9.055,6,18,6s18-2.061,18-6C50,52.628,43.686,51.151,39.89,50.567ZM32,4A21.024,21.024,0,0,1,53,25c0,10.4-17.343,27.209-21,30.637C28.343,52.209,11,35.4,11,25A21.024,21.024,0,0,1,32,4Zm0,56c-10.5,0-16-2.6-16-4,0-1.023,3.128-2.856,9.808-3.646,2.98,3.08,5.239,5.133,5.522,5.389a1,1,0,0,0,1.34,0c.283-.256,2.542-2.309,5.522-5.389C44.872,53.144,48,54.977,48,56,48,57.4,42.505,60,32,60Z" data-original="#000000" class="active-path" data-old_color="#000000" fill="#5F7D95"/><path d="M34,35H30a1,1,0,0,1-1-1V32.244l-1.243,1.243a1,1,0,0,1-1.414,0l-2.83-2.83a1,1,0,0,1,0-1.414L24.756,28H23a1,1,0,0,1-1-1V23a1,1,0,0,1,1-1h1.756l-1.243-1.243a1,1,0,0,1,0-1.414l2.83-2.83a1,1,0,0,1,1.414,0L29,17.756V16a1,1,0,0,1,1-1h4a1,1,0,0,1,1,1v1.756l1.243-1.243a1,1,0,0,1,1.414,0l2.83,2.83a1,1,0,0,1,0,1.414L39.244,22H41a1,1,0,0,1,1,1v4a1,1,0,0,1-1,1H39.244l1.243,1.243a1,1,0,0,1,0,1.414l-2.83,2.83a1,1,0,0,1-1.414,0L35,32.244V34A1,1,0,0,1,34,35Zm-3-2h2V30.65a1,1,0,0,1,.713-.958,2.306,2.306,0,0,0,.4-.168,1,1,0,0,1,1.171.179l1.663,1.663,1.416-1.416L36.7,28.287a1,1,0,0,1-.179-1.171,2.234,2.234,0,0,0,.169-.406A1,1,0,0,1,37.65,26H40V24H37.65a1,1,0,0,1-.957-.71,2.234,2.234,0,0,0-.169-.406,1,1,0,0,1,.179-1.171l1.663-1.663L36.95,18.634,35.287,20.3a1,1,0,0,1-1.171.179,2.306,2.306,0,0,0-.4-.168A1,1,0,0,1,33,19.35V17H31v2.35a1,1,0,0,1-.713.958,2.306,2.306,0,0,0-.4.168,1,1,0,0,1-1.171-.179L27.05,18.634,25.634,20.05,27.3,21.713a1,1,0,0,1,.179,1.171,2.234,2.234,0,0,0-.169.406,1,1,0,0,1-.957.71H24v2h2.35a1,1,0,0,1,.957.71,2.234,2.234,0,0,0,.169.406,1,1,0,0,1-.179,1.171L25.634,29.95l1.416,1.416L28.713,29.7a1,1,0,0,1,1.171-.179,2.306,2.306,0,0,0,.4.168A1,1,0,0,1,31,30.65Z" data-original="#000000" class="active-path" data-old_color="#000000" fill="#5F7D95"/><path d="M32,29a4,4,0,1,1,4-4A4,4,0,0,1,32,29Zm0-6a2,2,0,1,0,2,2A2,2,0,0,0,32,23Z" data-original="#000000" class="active-path" data-old_color="#000000" fill="#5F7D95"/></g></g> </svg>
