<?xml version="1.0"?>
<svg xmlns="http://www.w3.org/2000/svg" xmlns:xlink="http://www.w3.org/1999/xlink" version="1.1" id="Capa_1" x="0px" y="0px" viewBox="0 0 490 490" style="enable-background:new 0 0 490 490;" xml:space="preserve" width="512px" height="512px" class=""><g><g>
	<path d="M210.174,238.343c9.014,31.176,27.268,67.714,29.953,72.98l4.873,9.655l4.904-9.655   c2.66-5.299,20.898-41.823,29.913-72.976c28.504-13.251,48.323-42.173,48.323-75.815c0-46.156-37.223-83.572-83.141-83.572   s-83.141,37.416-83.141,83.572C161.859,196.171,181.675,225.09,210.174,238.343z M245,109.585   c28.957,0,52.516,23.752,52.516,52.947c0,20.542-12.015,39.4-30.609,48.044l-12.635,5.874l-3.873,13.384   c-1.533,5.298-3.388,10.826-5.407,16.345c-2.01-5.501-3.861-11.027-5.398-16.342l-3.871-13.388l-12.636-5.876   c-18.591-8.646-30.604-27.503-30.604-48.042C192.484,133.337,216.043,109.585,245,109.585z" data-original="#000000" class="active-path" data-old_color="#000000" fill="#5F7D95"/>
	<ellipse cx="245" cy="162.532" rx="27.628" ry="27.771" data-original="#000000" class="active-path" data-old_color="#000000" fill="#5F7D95"/>
	<path d="M460.377,24.06H29.623C13.286,24.06,0,37.35,0,53.683V340.89c0,16.329,13.286,29.616,29.623,29.616h138.385l-8.954,64.809   h-32.725v30.625h237.344v-30.625h-32.725l-8.954-64.809h138.385c16.337,0,29.623-13.286,29.623-29.616V53.683   C490,37.35,476.714,24.06,460.377,24.06z M300.027,435.315H189.973l8.947-64.757l-0.379-0.052h92.918l-0.379,0.052L300.027,435.315   z M459.375,339.881H30.625V54.685h428.75V339.881z" data-original="#000000" class="active-path" data-old_color="#000000" fill="#5F7D95"/>
</g></g> </svg>
