<?xml version="1.0"?>
<svg xmlns="http://www.w3.org/2000/svg" height="512px" viewBox="0 0 60 60" width="512px" class="hovered-paths"><g><g id="Page-1" fill="none" fill-rule="evenodd"><g id="078---Business-Zone-Marker" fill="rgb(0,0,0)" fill-rule="nonzero"><path id="Shape" d="m.45 58.28v.15c.20540964.9342904 1.04365601 1.5923138 2 1.57h55.13c.6516197-.0002772 1.2622506-.3179822 1.6364641-.8514356.3742136-.5334534.4650867-1.2157646.2435359-1.8285644l-3.54-9.93c-.0123446-.0416668-.0291065-.0818952-.05-.12l-5.69-15.94c-.282953-.7958378-1.03536-1.3281257-1.88-1.33h-4c1.776903-4.0511832 2.6961803-8.4262624 2.7-12.85 0-9.38884075-7.6111593-17-17-17s-17 7.61115925-17 17c.0141489 4.4247214.9400759 8.7990458 2.72 12.85h-4c-.8483087-.0023587-1.6058188.5307039-1.89 1.33l-7.31 20.45c-.00565734.0431487-.00565734.0868513 0 .13l-1.98 5.4c-.09530705.2829388-.12605915.583626-.09.88zm5.55-10.2 2.28 1-3.14 1.33zm-1.8 4.92 7-3c.3687533-.1570883.6080816-.5191812.6080816-.92s-.2393283-.7629117-.6080816-.92l-4.53-2 .91-2.53 8.74 3.78c.1274391.0504989.2629413.0775993.4.08.1371549-.0014947.2728206-.0286278.4-.08l8.56-3.7c.87.81 1.64 1.45 2.26 1.94l-2.76 1.19c-.3687533.1570883-.6080816.5191812-.6080816.92s.2393283.7629117.6080816.92l21.5 9.32h-6.76l-19.86-8.58c-.2550505-.1113131-.5449495-.1113131-.8 0l-16.26 7.04zm6.51-18.18 11 4.75c.82 1 1.64 1.88 2.42 2.67l-7.41 3.2-8.5-3.67zm29.14 2.8 9.06-3.91.9 2.53-4 1.71c-.3687533.1570883-.6080816.5191812-.6080816.92s.2393283.7629117.6080816.92l6.19 2.66 1.24 3.45-12.49-5.4c-.2550505-.1113131-.5449495-.1113131-.8 0l-4.07 1.75c1.4330596-1.4493074 2.7598281-2.9999891 3.97-4.64zm11.26 2.26-2.35-1 1.72-.74zm-16.23 18.12h-30.42l15.2-6.57zm16.84 0-23.64-10.21 1.85-.8h.07c.1994427.0004453.3944627-.0587572.56-.17l.39-.28 9.4-4 13.84 6 3.39 9.46zm-3.91-26-5.88 2.54c.51-.84 1-1.69 1.4-2.54zm-31.48-21.07c2.9127586-6.44831223 9.9355629-9.98426905 16.8503563-8.48409412 6.9147935 1.50017493 11.8409234 7.62847112 11.8196437 14.70409412 0 10.9-6.41 21.2-15 27.62-1.2027126-.9088857-2.3513336-1.8872171-3.44-2.93-7-6.66-11.56-15.22-11.56-24.69-.0064071-2.1445704.4471212-4.2655824 1.33-6.22zm.33 21.07c.7492808 1.499174 1.6047954 2.9428549 2.56 4.32l-7.84-3.4.33-.92z" data-original="#000000" class="active-path" data-old_color="#000000" fill="#5F7D95"/><path id="Shape" d="m22 30h16c1.1045695 0 2-.8954305 2-2v-14c0-1.1045695-.8954305-2-2-2h-4v-6c0-1.1045695-.8954305-2-2-2h-4c-1.1045695 0-2 .8954305-2 2v10h-4c-1.1045695 0-2 .8954305-2 2v10c0 1.1045695.8954305 2 2 2zm16-16v2h-1c-.5522847 0-1 .4477153-1 1s.4477153 1 1 1h1v2h-1c-.5522847 0-1 .4477153-1 1s.4477153 1 1 1h1v2h-1c-.5522847 0-1 .4477153-1 1s.4477153 1 1 1h1v2h-4v-14zm-6-8v22h-4v-2h1c.5522847 0 1-.4477153 1-1s-.4477153-1-1-1h-1v-2h1c.5522847 0 1-.4477153 1-1s-.4477153-1-1-1h-1v-2h1c.5522847 0 1-.4477153 1-1s-.4477153-1-1-1h-1v-2h1c.5522847 0 1-.4477153 1-1s-.4477153-1-1-1h-1v-2h1c.5522847 0 1-.44771525 1-1s-.4477153-1-1-1h-1v-2zm-6 12v10h-4v-2h1c.5522847 0 1-.4477153 1-1s-.4477153-1-1-1h-1v-2h1c.5522847 0 1-.4477153 1-1s-.4477153-1-1-1h-1v-2z" data-original="#000000" class="active-path" data-old_color="#000000" fill="#5F7D95"/></g></g></g> </svg>
