<?xml version="1.0"?>
<svg xmlns="http://www.w3.org/2000/svg" height="512px" viewBox="0 0 496.08347 496" width="512px"><g><path d="m440.082031 248.042969c4.425781 0 8-3.585938 8-8v-80c0-4.417969-3.574219-8-8-8h-144c-4.425781 0-8 3.582031-8 8v80c0 4.414062 3.574219 8 8 8zm-136-80h128v64h-128zm0 0" data-original="#000000" class="active-path" data-old_color="#000000" fill="#5F7D95"/><path d="m322.421875 210.382812 32.003906-32 11.3125 11.3125-32 32zm0 0" data-original="#000000" class="active-path" data-old_color="#000000" fill="#5F7D95"/><path d="m370.421875 210.382812 32.003906-32 11.3125 11.3125-32 32.003907zm0 0" data-original="#000000" class="active-path" data-old_color="#000000" fill="#5F7D95"/><path d="m360.082031 328.042969h-24v16h16v32h-16v16h24c4.425781 0 8-3.585938 8-8v-48c0-4.417969-3.574219-8-8-8zm0 0" data-original="#000000" class="active-path" data-old_color="#000000" fill="#5F7D95"/><path d="m488.082031 432.042969h-8v-296h8c3.230469 0 6.160157-1.953125 7.390625-4.9375 1.242188-2.992188.554688-6.433594-1.734375-8.71875l-80-80c-1.496093-1.503907-3.527343-2.34375-5.65625-2.34375h-80c-2.128906 0-4.160156.839843-5.65625 2.34375l-55.375 55.375c-2.410156-8.34375-5.648437-16.582031-9.785156-24.609375-23.253906-45.09375-69.6875-73.1093752-121.183594-73.1093752-51.496093 0-97.929687 28.0156252-121.175781 73.1171872-22.9375 44.488282-19.25 95.464844 9.992188 136.53125l104.800781 139.167969c1.503906 2.007813 3.871093 3.183594 6.382812 3.183594s4.878907-1.175781 6.390625-3.183594l104.921875-139.335937c15.933594-22.378907 24.191407-47.777344 24.703125-73.472657h191.984375v296h-32v-144.007812c0-4.417969-3.574219-8-8-8h-112c-4.425781 0-8 3.582031-8 8v144h-32v-216h-16v216h-48v-24c0-4.417969-3.574219-8-8-8h-128c-4.425781 0-8 3.582031-8 8v24h-56c-4.425781 0-7.9999998 3.582031-7.9999998 8v48c0 4.414062 3.5742188 8 7.9999998 8h480c4.425781 0 8-3.585938 8-8v-48c0-4.417969-3.574219-8-8-8zm-253.59375-231.984375-98.40625 130.679687-98.28125-130.503906c-25.566406-35.921875-28.824219-80.679687-8.679687-119.746094 20.800781-40.351562 60.792968-64.445312 106.960937-64.445312s86.160157 24.09375 106.960938 64.445312c20.144531 39.066407 16.886719 83.824219-8.554688 119.570313zm96.90625-144.015625h73.375l64 64h-197.382812c-.128907-1.210938-.207031-2.417969-.367188-3.625zm-19.3125 392h8v32h-16v-32zm24 0h16v32h-16zm32 0h16v32h-16zm32 0h16v32h-16zm32 0h16v32h-16zm-112-152h96v136h-96zm-32 152v32h-16v-32zm-224 32h-16v-32h16zm16-32h16v32h-16zm32 0h16v32h-16zm32 0h16v32h-16zm32 0h16v32h-16zm32 0h16v32h-16zm32 0h16v32h-16zm-160-32h112v16h-112zm-64 32h16v32h-16zm464 32h-16v-32h16zm0 0" data-original="#000000" class="active-path" data-old_color="#000000" fill="#5F7D95"/><path d="m136.082031 48.042969c-48.519531 0-88 39.480469-88 88s39.480469 88 88 88 88-39.480469 88-88-39.480469-88-88-88zm0 160c-39.703125 0-72-32.304688-72-72 0-39.695313 32.296875-72 72-72s72 32.304687 72 72c0 39.695312-32.296875 72-72 72zm0 0" data-original="#000000" class="active-path" data-old_color="#000000" fill="#5F7D95"/><path d="m144.082031 80.042969h-16v16c-8.824219 0-16 7.175781-16 16v16c0 8.824219 7.175781 16 16 16h16v16h-32v16h16v16h16v-16c8.824219 0 16-7.175781 16-16v-16c0-8.824219-7.175781-16-16-16h-16v-16h32v-16h-16zm0 0" data-original="#000000" class="active-path" data-old_color="#000000" fill="#5F7D95"/></g> </svg>
