<?xml version="1.0"?>
<svg xmlns="http://www.w3.org/2000/svg" id="Layer_5" enable-background="new 0 0 64 64" height="512px" viewBox="0 0 64 64" width="512px"><g><path d="m62.618 47-5-10h-4.624c-2.007-4.811-6.735-8-11.994-8s-9.987 3.189-11.994 8h-5.006v-16c0-.552.448-1 1-1h13.133l3.491 5.673c.505.818 1.415 1.327 2.376 1.327s1.871-.509 2.376-1.327l6.204-10.082c.929-1.51 1.42-3.245 1.42-5.018 0-5.278-4.295-9.573-9.573-9.573h-.854c-5.278 0-9.573 4.295-9.573 9.573 0 .824.117 1.638.324 2.427h-12.435c1.301-1.272 2.111-3.042 2.111-5 0-3.859-3.141-7-7-7s-7 3.141-7 7c0 2.047.889 3.886 2.294 5.167-4.149.8-7.294 4.454-7.294 8.833v9c0 2.206 1.794 4 4 4h1v2h-3.618l-5 10h4.618v16h52v-16zm-3.236-2h-14.764l-3-6h14.764zm-8.588-8h-4.411l2.325-2.842c.835.819 1.541 1.776 2.086 2.842zm-9.794-6c2.247 0 4.377.692 6.157 1.895l-3.359 4.105h-12.592c1.86-3.638 5.63-6 9.794-6zm2.573-28h.854c4.176 0 7.573 3.397 7.573 7.573 0 1.402-.389 2.775-1.123 3.969l-6.204 10.082c-.285.463-1.061.463-1.346 0l-6.204-10.082c-.734-1.193-1.123-2.566-1.123-3.969 0-4.176 3.397-7.573 7.573-7.573zm-25.606 21.619-.967.967-.967-.967.766-9.619h.402zm-5.967-16.619c0-2.757 2.243-5 5-5s5 2.243 5 5-2.243 5-5 5-5-2.243-5-5zm-2 12v13h-1c-1.103 0-2-.897-2-2v-9c0-3.859 3.141-7 7-7h.792l-.825 10.381 3.033 3.033 3.033-3.033-.825-10.381h15.902c.103.197.192.401.309.591l1.483 2.409h-11.902c-1.654 0-3 1.346-3 3v16h-4v-6h-2v6h-4v-17zm-2.382 19h28.764l-3 6h-28.764zm.382 8h26.618l3.382-6.764v20.764h-30zm48 14h-16v-20.764l3.382 6.764h12.618z" data-original="#000000" class="active-path" data-old_color="#000000" fill="#5F7D95"/><path d="m44 17c3.309 0 6-2.691 6-6s-2.691-6-6-6-6 2.691-6 6 2.691 6 6 6zm0-10c2.206 0 4 1.794 4 4s-1.794 4-4 4-4-1.794-4-4 1.794-4 4-4z" data-original="#000000" class="active-path" data-old_color="#000000" fill="#5F7D95"/><path d="m41 33h2v2h-2z" data-original="#000000" class="active-path" data-old_color="#000000" fill="#5F7D95"/><path d="m37 33h2v2h-2z" data-original="#000000" class="active-path" data-old_color="#000000" fill="#5F7D95"/><path d="m52 57h2v2h-2z" data-original="#000000" class="active-path" data-old_color="#000000" fill="#5F7D95"/><path d="m48 57h2v2h-2z" data-original="#000000" class="active-path" data-old_color="#000000" fill="#5F7D95"/><path d="m44 57h2v2h-2z" data-original="#000000" class="active-path" data-old_color="#000000" fill="#5F7D95"/><path d="m34 53h-6c-1.103 0-2 .897-2 2v2c0 1.103.897 2 2 2h6c1.103 0 2-.897 2-2v-2c0-1.103-.897-2-2-2zm0 4h-6l-.002-2h.002 6z" data-original="#000000" class="active-path" data-old_color="#000000" fill="#5F7D95"/><path d="m9 41h2v2h-2z" data-original="#000000" class="active-path" data-old_color="#000000" fill="#5F7D95"/><path d="m13 41h2v2h-2z" data-original="#000000" class="active-path" data-old_color="#000000" fill="#5F7D95"/><path d="m17 41h2v2h-2z" data-original="#000000" class="active-path" data-old_color="#000000" fill="#5F7D95"/></g> </svg>
