<?xml version="1.0"?>
<svg xmlns="http://www.w3.org/2000/svg" id="Capa_1" enable-background="new 0 0 491.999 491.999" height="512px" viewBox="0 0 491.999 491.999" width="512px" class=""><g><path d="m117.034 136.681h-35.272c-3.314 0-6 2.686-6 6v47.03c0 3.314 2.686 6 6 6h35.272c3.314 0 6-2.686 6-6v-47.03c0-3.314-2.686-6-6-6zm-6 47.03h-23.272v-35.03h23.272z" data-original="#000000" class="active-path" data-old_color="#000000" fill="#5F7D95"/><path d="m181.753 195.711h35.272c3.314 0 6-2.686 6-6v-47.03c0-3.314-2.686-6-6-6h-35.272c-3.314 0-6 2.686-6 6v47.03c0 3.314 2.687 6 6 6zm6-47.03h23.272v35.03h-23.272z" data-original="#000000" class="active-path" data-old_color="#000000" fill="#5F7D95"/><path d="m117.034 221.335h-35.272c-3.314 0-6 2.686-6 6v47.03c0 3.314 2.686 6 6 6h35.272c3.314 0 6-2.686 6-6v-47.03c0-3.314-2.686-6-6-6zm-6 47.03h-23.272v-35.03h23.272z" data-original="#000000" class="active-path" data-old_color="#000000" fill="#5F7D95"/><path d="m181.753 280.365h35.272c3.314 0 6-2.686 6-6v-47.03c0-3.314-2.686-6-6-6h-35.272c-3.314 0-6 2.686-6 6v47.03c0 3.314 2.687 6 6 6zm6-47.03h23.272v35.03h-23.272z" data-original="#000000" class="active-path" data-old_color="#000000" fill="#5F7D95"/><path d="m117.034 305.989h-35.272c-3.314 0-6 2.686-6 6v47.03c0 3.314 2.686 6 6 6h35.272c3.314 0 6-2.686 6-6v-47.03c0-3.314-2.686-6-6-6zm-6 47.03h-23.272v-35.03h23.272z" data-original="#000000" class="active-path" data-old_color="#000000" fill="#5F7D95"/><path d="m181.753 365.019h35.272c3.314 0 6-2.686 6-6v-47.03c0-3.314-2.686-6-6-6h-35.272c-3.314 0-6 2.686-6 6v47.03c0 3.314 2.687 6 6 6zm6-47.03h23.272v35.03h-23.272z" data-original="#000000" class="active-path" data-old_color="#000000" fill="#5F7D95"/><path d="m296.302 278.748h35.272c3.314 0 6-2.686 6-6v-47.029c0-3.314-2.686-6-6-6h-35.272c-3.314 0-6 2.686-6 6v47.029c0 3.314 2.687 6 6 6zm6-47.029h23.272v35.029h-23.272z" data-original="#000000" class="active-path" data-old_color="#000000" fill="#5F7D95"/><path d="m429.602 315.52c-13.591-13.709-31.692-22.023-50.947-23.4v-108.288c0-3.314-2.686-6-6-6h-111.444v-92.469c0-1.889-.889-3.667-2.4-4.8l-105.818-79.363c-2.133-1.6-5.067-1.6-7.2 0l-105.816 79.363c-1.511 1.133-2.4 2.911-2.4 4.8v311.574c0 3.314 2.686 6 6 6h252.216c.044.123.08.248.125.372 4.129 10.996 10.452 21.038 18.584 29.514l53.779 57.283c2.268 2.416 6.065 2.535 8.481.267.092-.086.181-.175.267-.267l53.78-57.283c8.131-8.476 14.454-18.518 18.583-29.514 3.93-10.6 5.588-21.909 4.864-33.191-1.354-20.58-10.111-39.974-24.654-54.598zm-180.39 75.417h-199.636v-302.574l99.818-74.863 99.817 74.863zm12 0v-201.1h105.442v102.286c-19.254 1.377-37.356 9.691-50.946 23.4-14.543 14.625-23.3 34.02-24.654 54.6-.464 6.97 0 13.971 1.379 20.819zm176.905 8.263c-3.575 9.472-9.038 18.119-16.057 25.415l-49.406 52.624-49.4-52.624c-7.021-7.296-12.486-15.942-16.063-25.415-3.355-9.029-4.774-18.663-4.165-28.276 1.161-17.688 8.685-34.358 21.183-46.929 26.674-26.756 69.988-26.822 96.743-.148l.148.148c12.497 12.571 20.021 29.241 21.182 46.929.61 9.613-.809 19.247-4.165 28.276z" data-original="#000000" class="active-path" data-old_color="#000000" fill="#5F7D95"/><path d="m372.654 330.263c-21.214 0-38.474 17.65-38.474 39.346s17.26 39.347 38.474 39.347 38.475-17.65 38.475-39.347-17.26-39.346-38.475-39.346zm0 66.693c-14.6 0-26.474-12.268-26.474-27.347s11.876-27.346 26.474-27.346 26.475 12.267 26.475 27.346-11.876 27.347-26.475 27.347z" data-original="#000000" class="active-path" data-old_color="#000000" fill="#5F7D95"/></g> </svg>
