<?xml version="1.0"?>
<svg xmlns="http://www.w3.org/2000/svg" height="512px" viewBox="-22 -21 682 682.66522" width="512px"><g><path d="m152.03125 555.632812c-9.40625.210938-26.550781-5.6875-43.792969-22.972656-17.242187-17.285156-23.089843-34.425781-22.859375-43.851562.390625-16.125-24.722656-16.765625-25.117187-.613282-.476563 19.523438 10.808593 42.78125 30.1875 62.207032 19.03125 19.078125 41.765625 30.359375 61.066406 30.359375 16.714844 0 17.457031-25.441407.515625-25.128907-9.40625.214844 6.933594-.125 0 0zm0 0" data-original="#000000" class="active-path" data-old_color="#000000" fill="#5F7D95"/><path d="m143.191406 614.863281c-.347656.007813-.691406.011719-1.035156.011719-22.398438 0-52.414062-15.648438-76.835938-40.136719-24.804687-24.863281-40.480468-55.472656-39.933593-77.96875.390625-16.125-24.722657-16.742187-25.117188-.609375-.71875 29.472656 17.394531 66.382813 47.261719 96.324219 29.355469 29.429687 65.46875 47.515625 94.683594 47.515625 16.957031 0 18.191406-25.484375.976562-25.136719-.347656.007813 6.875-.136719 0 0zm0 0" data-original="#000000" class="active-path" data-old_color="#000000" fill="#5F7D95"/><path d="m8.394531 187.445312c-4.90625 4.90625-4.90625 12.859376 0 17.769532l142.074219 142.070312-1.117188 1.117188c-35.984374 35.984375-38.734374 92.78125-8.300781 131.980468l-17.019531 17.023438c-11.296875 11.292969 6.390625 29.136719 17.761719 17.761719l17.023437-17.019531c17.960938 13.945312 39.601563 20.941406 61.261719 20.941406 25.613281 0 51.222656-9.746094 70.71875-29.246094l1.117187-1.113281 142.070313 142.074219c4.835937 4.832031 12.929687 4.832031 17.765625 0l81.800781-81.800782c4.835938-4.835937 4.835938-12.9375 0-17.769531l-142.070312-142.070313 40.246093-40.246093 47-12.601563c9.144532-2.449218 12.355469-14.292968 5.628907-21.015625l-158.484375-158.484375c-6.535156-6.535156-18.039063-3.730468-20.84375 5.050782l-14.523438 45.382812-40.46875 40.46875-142.074218-142.070312c-4.902344-4.90625-12.855469-4.90625-17.765626 0zm422.414063 276.582032-23.132813 23.128906-57.097656-57.09375 23.140625-23.136719zm-108.132813-274.878906 128.535157 128.535156-22.238282 5.960937-113.136718-113.132812zm-113.542969 99.472656-28.546874-28.550782-28.546876-28.546874c7.714844-7.710938 15.421876-15.425782 23.132813-23.136719l57.101563 57.101562zm-110.054687-156.328125 58.332031 58.332031c-7.714844 7.707031-15.425781 15.421875-23.136718 23.132812l-58.328126-58.328124zm-40.898437 40.898437 58.324218 58.332032-23.132812 23.132812-58.324219-58.324219zm52.960937 99.234375 23.132813-23.136719 57.09375 57.097657-23.132813 23.132812zm139.601563 10.117188 41.203124 41.207031c11.460938 11.453125 29.222657-6.308594 17.769532-17.769531l-41.207032-41.207031 33.03125-33.027344 105.914063 105.914062-134.417969 134.417969c-29.199218 29.199219-76.714844 29.199219-105.914062 0-29.203125-29.199219-29.203125-76.714844 0-105.914063zm82.070312 165.289062 57.097656 57.09375-23.136718 23.132813-57.09375-57.097656zm110.054688 156.320313-58.328126-58.328125 23.136719-23.136719c19.445313 19.445312 38.882813 38.886719 58.328125 58.332031zm40.902343-40.898438-58.328125-58.328125 23.132813-23.136719 58.332031 58.332032zm0 0" data-original="#000000" class="active-path" data-old_color="#000000" fill="#5F7D95"/><path d="m184.570312 380.617188c-9.882812 9.882812-15.324218 23.027343-15.324218 37.003906 0 13.980468 5.441406 27.117187 15.324218 37.007812 10.203126 10.199219 23.605469 15.296875 37.007813 15.296875 13.398437 0 26.796875-5.097656 37.003906-15.296875 20.398438-20.40625 20.398438-53.605468 0-74.011718-20.40625-20.402344-53.605469-20.402344-74.011719 0zm56.242188 56.242187c-10.605469 10.609375-27.867188 10.609375-38.476562 0-5.136719-5.136719-7.964844-11.96875-7.964844-19.238281 0-7.265625 2.828125-14.097656 7.96875-19.234375 5.304687-5.300781 12.269531-7.957031 19.234375-7.957031 6.96875 0 13.933593 2.65625 19.238281 7.957031 10.609375 10.605469 10.609375 27.867187 0 38.472656zm0 0" data-original="#000000" class="active-path" data-old_color="#000000" fill="#5F7D95"/><path d="m597.332031 23.339844c-37.941406-31.121094-93.007812-31.121094-130.949219 0-34.785156 28.535156-50.359374 81.144531-37.039062 125.097656 14.121094 46.601562 54.933594 83.144531 92.082031 113.742188 7.15625 5.890624 13.632813 5.953124 20.867188-.003907 33.246093-27.402343 74.621093-61.503906 90.449219-108.03125 15.421874-45.355469.203124-101.59375-35.410157-130.804687zm11.621094 122.714844c-12.761719 37.511718-46.152344 66.566406-77.085937 92.148437-32.730469-27.277344-67.042969-59.296875-78.480469-97.050781-10.328125-34.089844 2.109375-76.382813 28.929687-98.390625 14.351563-11.773438 31.941406-17.660157 49.539063-17.660157 17.59375 0 35.1875 5.886719 49.542969 17.660157 27.484374 22.550781 39.589843 67.921875 27.554687 103.292969zm0 0" data-original="#000000" class="active-path" data-old_color="#000000" fill="#5F7D95"/><path d="m531.855469 46.054688c-33.617188 0-60.96875 27.347656-60.96875 60.964843 0 33.617188 27.347656 60.972657 60.96875 60.972657 33.621093 0 60.96875-27.347657 60.96875-60.972657 0-33.617187-27.347657-60.964843-60.96875-60.964843zm0 96.808593c-19.765625 0-35.847657-16.078125-35.847657-35.84375s16.082032-35.84375 35.847657-35.84375 35.847656 16.078125 35.847656 35.84375-16.082031 35.84375-35.847656 35.84375zm0 0" data-original="#000000" class="active-path" data-old_color="#000000" fill="#5F7D95"/><path d="m338.027344 364.25c6.832031 0 12.550781-5.730469 12.550781-12.558594s-5.722656-12.5625-12.550781-12.5625c-6.632813 0-12.253906 5.394532-12.546875 12.011719-.316407 7.042969 5.496093 13.109375 12.546875 13.109375zm0 0" data-original="#000000" class="active-path" data-old_color="#000000" fill="#5F7D95"/></g> </svg>
