<?xml version="1.0"?>
<svg xmlns="http://www.w3.org/2000/svg" id="Layer_1" data-name="Layer 1" viewBox="0 0 512 512" width="512px" height="512px"><g><title class="active-path" style="">map service settings</title><path d="M486.576,188.777l-34.829-3.356a147.835,147.835,0,0,0-17.715-42.072l22.181-26.786a6,6,0,0,0-.352-8.042L419.1,71.284a6,6,0,0,0-8.1-.405L384.173,93.1a151.179,151.179,0,0,0-42.03-17.748l-3.357-34.831a6,6,0,0,0-5.973-5.425h-52.79a6,6,0,0,0-5.972,5.425l-3.357,34.829a147.8,147.8,0,0,0-42.072,17.715L201.836,70.879a6,6,0,0,0-8.069.379l-37.236,37.236a6,6,0,0,0-.379,8.069l22.216,26.828a160.214,160.214,0,0,0-8.527,16C86.423,164.1,20,233.443,20,318.018c0,87.612,71.278,158.89,158.891,158.89A158.848,158.848,0,0,0,310.327,407.2h22.486a6,6,0,0,0,5.973-5.424l3.357-34.83a147.8,147.8,0,0,0,42.072-17.715L411,371.411a6,6,0,0,0,8.07-.379L456.306,333.8a6,6,0,0,0,.379-8.069L434.468,298.9a151.169,151.169,0,0,0,17.749-42.035l34.366-3.352A6,6,0,0,0,492,247.54V194.75A6,6,0,0,0,486.576,188.777ZM178.891,464.908C97.9,464.908,32,399.014,32,318.018S97.9,171.127,178.891,171.127s146.89,65.894,146.89,146.891S259.886,464.908,178.891,464.908ZM337.685,312.754c-2.249-68.7-48.316-126.511-111.1-146.31a96.783,96.783,0,1,1,111.1,146.31ZM317.733,395.2a158.061,158.061,0,0,0,12.365-28.36l-2.734,28.36ZM480,242.1l-33.232,3.242a6,6,0,0,0-5.282,4.7,139.346,139.346,0,0,1-19.446,46.092,6,6,0,0,0,.421,7.08l21.5,25.959-29.511,29.511-25.959-21.5a6,6,0,0,0-7.155-.372,135.256,135.256,0,0,1-46.017,19.4,5.984,5.984,0,0,0-2.476,1.183,158.226,158.226,0,0,0,4.765-32.018A108.789,108.789,0,1,0,214.4,163.131a158.487,158.487,0,0,0-31.131-3.941c2.26-4.409,4.776-8.769,7.528-13.035a6,6,0,0,0-.421-7.08l-21.5-25.959L198.39,83.605l25.958,21.5a6,6,0,0,0,7.155.371,135.258,135.258,0,0,1,46.018-19.4,6,6,0,0,0,4.7-5.289l3.248-33.7h41.891l3.248,33.7a6,6,0,0,0,4.7,5.289,139.343,139.343,0,0,1,46.092,19.445,6,6,0,0,0,7.08-.42L414.42,83.628l29.089,29.462L421.99,139.075a6,6,0,0,0-.371,7.155,135.254,135.254,0,0,1,19.395,46.017,6,6,0,0,0,5.289,4.7L480,200.2Z" data-original="#000000" class="active-path" fill="#5F7D95"/><path d="M242.03,233.113a89.154,89.154,0,0,0-126.279,0A94.712,94.712,0,0,0,88.4,293.678a89.4,89.4,0,0,0,5.4,36.8,96.093,96.093,0,0,0,20.618,32.743l60.1,64.016a6,6,0,0,0,8.749,0l60.1-64.016a96.093,96.093,0,0,0,20.618-32.743,89.4,89.4,0,0,0,5.4-36.8A94.712,94.712,0,0,0,242.03,233.113Zm10.68,93.254a84.153,84.153,0,0,1-18.094,28.643l-55.725,59.356L123.165,355.01a84.184,84.184,0,0,1-18.094-28.643,77.475,77.475,0,0,1-4.695-31.888,82.708,82.708,0,0,1,23.876-52.9,77.153,77.153,0,0,1,109.277,0,82.708,82.708,0,0,1,23.876,52.9A77.459,77.459,0,0,1,252.71,326.367Z" data-original="#000000" class="active-path" fill="#5F7D95"/><path d="M178.891,256.645c-20.529,0-37.229,17.077-37.229,38.067s16.7,38.068,37.229,38.068S216.12,315.7,216.12,294.712,199.419,256.645,178.891,256.645Zm0,64.135c-13.912,0-25.229-11.694-25.229-26.068s11.317-26.067,25.229-26.067,25.229,11.693,25.229,26.067S192.8,320.78,178.891,320.78Z" data-original="#000000" class="active-path" fill="#5F7D95"/></g> </svg>
