<?xml version="1.0"?>
<svg xmlns="http://www.w3.org/2000/svg" height="512px" viewBox="-56 0 512 512" width="512px" class=""><g><path d="m384.25 0h-368.71875c-8.566406 0-15.53125 6.964844-15.53125 15.53125v480.9375c0 8.566406 6.964844 15.53125 15.53125 15.53125h368.71875c8.5625 0 15.53125-6.964844 15.53125-15.53125v-366.148438c0-4.152343-3.363281-7.515624-7.515625-7.515624s-7.515625 3.363281-7.515625 7.515624v318.554688h-185.359375v-240.96875c0-4.148438-3.363281-7.515625-7.515625-7.515625h-24.546875v-64.625c0-4.152344-3.363281-7.515625-7.515625-7.515625s-7.515625 3.363281-7.515625 7.515625v64.625h-17.03125v-104.703125c0-4.152344-3.363281-7.515625-7.515625-7.515625s-7.515625 3.363281-7.515625 7.515625v104.703125h-17.03125v-64.625c0-4.152344-3.363281-7.515625-7.515625-7.515625s-7.515625 3.363281-7.515625 7.515625v64.625h-24.546875c-4.152344 0-7.515625 3.367187-7.515625 7.515625v240.96875h-41.078125v-385.75h369.71875v32.691406c0 4.152344 3.363281 7.515625 7.515625 7.515625s7.515625-3.363281 7.515625-7.515625v-80.285156c0-8.566406-6.96875-15.53125-15.53125-15.53125zm-313.109375 215.421875h113.21875v233.453125h-113.21875zm313.609375 248.484375v32.5625c0 .277344-.222656.5-.5.5h-368.71875c-.277344 0-.5-.222656-.5-.5v-32.5625zm-369.71875-415.8125v-32.5625c0-.277344.222656-.5.5-.5h368.71875c.277344 0 .5.222656.5.5v32.5625zm0 0" data-original="#000000" class="active-path" data-old_color="#000000" fill="#5F7D95"/><path d="m215.921875 24.046875h-32.0625c-4.152344 0-7.515625 3.363281-7.515625 7.515625 0 4.148438 3.363281 7.515625 7.515625 7.515625h32.0625c4.152344 0 7.515625-3.367187 7.515625-7.515625 0-4.152344-3.363281-7.515625-7.515625-7.515625zm0 0" data-original="#000000" class="active-path" data-old_color="#000000" fill="#5F7D95"/><path d="m175.84375 487.953125h48.09375c4.152344 0 7.515625-3.363281 7.515625-7.515625 0-4.148438-3.363281-7.515625-7.515625-7.515625h-48.09375c-4.152344 0-7.515625 3.367187-7.515625 7.515625 0 4.152344 3.363281 7.515625 7.515625 7.515625zm0 0" data-original="#000000" class="active-path" data-old_color="#000000" fill="#5F7D95"/><path d="m247.984375 24.046875h-8.015625c-4.152344 0-7.515625 3.363281-7.515625 7.515625 0 4.148438 3.363281 7.515625 7.515625 7.515625h8.015625c4.152344 0 7.515625-3.367187 7.515625-7.515625 0-4.152344-3.363281-7.515625-7.515625-7.515625zm0 0" data-original="#000000" class="active-path" data-old_color="#000000" fill="#5F7D95"/><path d="m159.8125 24.046875h-8.015625c-4.152344 0-7.515625 3.363281-7.515625 7.515625 0 4.148438 3.363281 7.515625 7.515625 7.515625h8.015625c4.152344 0 7.515625-3.367187 7.515625-7.515625 0-4.152344-3.363281-7.515625-7.515625-7.515625zm0 0" data-original="#000000" class="active-path" data-old_color="#000000" fill="#5F7D95"/><path d="m159.8125 232.453125c-4.152344 0-7.515625 3.367187-7.515625 7.515625v64.125c0 4.148438 3.363281 7.515625 7.515625 7.515625s7.515625-3.367187 7.515625-7.515625v-64.125c0-4.148438-3.363281-7.515625-7.515625-7.515625zm0 0" data-original="#000000" class="active-path" data-old_color="#000000" fill="#5F7D95"/><path d="m127.75 232.453125c-4.152344 0-7.515625 3.367187-7.515625 7.515625v64.125c0 4.148438 3.363281 7.515625 7.515625 7.515625s7.515625-3.367187 7.515625-7.515625v-64.125c0-4.148438-3.363281-7.515625-7.515625-7.515625zm0 0" data-original="#000000" class="active-path" data-old_color="#000000" fill="#5F7D95"/><path d="m95.6875 232.453125c-4.152344 0-7.515625 3.367187-7.515625 7.515625v64.125c0 4.148438 3.363281 7.515625 7.515625 7.515625s7.515625-3.367187 7.515625-7.515625v-64.125c0-4.148438-3.363281-7.515625-7.515625-7.515625zm0 0" data-original="#000000" class="active-path" data-old_color="#000000" fill="#5F7D95"/><path d="m159.8125 336.65625c-4.152344 0-7.515625 3.367188-7.515625 7.515625v64.125c0 4.152344 3.363281 7.515625 7.515625 7.515625s7.515625-3.363281 7.515625-7.515625v-64.125c0-4.148437-3.363281-7.515625-7.515625-7.515625zm0 0" data-original="#000000" class="active-path" data-old_color="#000000" fill="#5F7D95"/><path d="m127.75 336.65625c-4.152344 0-7.515625 3.367188-7.515625 7.515625v64.125c0 4.152344 3.363281 7.515625 7.515625 7.515625s7.515625-3.363281 7.515625-7.515625v-64.125c0-4.148437-3.363281-7.515625-7.515625-7.515625zm0 0" data-original="#000000" class="active-path" data-old_color="#000000" fill="#5F7D95"/><path d="m95.6875 336.65625c-4.152344 0-7.515625 3.367188-7.515625 7.515625v64.125c0 4.152344 3.363281 7.515625 7.515625 7.515625s7.515625-3.363281 7.515625-7.515625v-64.125c0-4.148437-3.363281-7.515625-7.515625-7.515625zm0 0" data-original="#000000" class="active-path" data-old_color="#000000" fill="#5F7D95"/><path d="m275.679688 446.476562c2.582031 1.84375 6.152343 1.84375 8.734374 0 2.421876-1.730468 59.257813-42.917968 59.257813-94.289062 0-35.082031-28.542969-63.625-63.625-63.625s-63.625 28.542969-63.625 63.625c0 51.371094 56.835937 92.558594 59.257813 94.289062zm4.367187-142.882812c26.796875 0 48.59375 21.796875 48.59375 48.59375 0 36.089844-35.921875 68.394531-48.601563 78.667969-12.6875-10.257813-48.585937-42.492188-48.585937-78.667969 0-26.796875 21.796875-48.59375 48.59375-48.59375zm0 0" data-original="#000000" class="active-path" data-old_color="#000000" fill="#5F7D95"/><path d="m280.046875 383.75c17.402344 0 31.5625-14.160156 31.5625-31.5625s-14.160156-31.5625-31.5625-31.5625-31.5625 14.160156-31.5625 31.5625 14.160156 31.5625 31.5625 31.5625zm0-48.09375c9.117187 0 16.53125 7.414062 16.53125 16.53125s-7.414063 16.53125-16.53125 16.53125-16.53125-7.414062-16.53125-16.53125 7.414063-16.53125 16.53125-16.53125zm0 0" data-original="#000000" class="active-path" data-old_color="#000000" fill="#5F7D95"/><path d="m326.933594 226.1875c6.570312 0 9.941406-8.199219 5.3125-12.828125-13.53125-13.53125-31.523438-20.984375-50.65625-20.984375-19.136719 0-37.125 7.453125-50.65625 20.984375-2.9375 2.933594-2.9375 7.691406-.003906 10.625 2.9375 2.9375 7.695312 2.9375 10.628906 0 10.695312-10.691406 24.910156-16.578125 40.03125-16.578125s29.335937 5.886719 40.03125 16.578125c1.464844 1.46875 3.386718 2.203125 5.3125 2.203125zm0 0" data-original="#000000" class="active-path" data-old_color="#000000" fill="#5F7D95"/><path d="m355.273438 197.847656c6.570312 0 9.941406-8.199218 5.3125-12.828125-21.101563-21.101562-49.15625-32.722656-78.996094-32.722656s-57.898438 11.621094-79 32.722656c-2.933594 2.933594-2.933594 7.691407 0 10.625 2.9375 2.9375 7.695312 2.9375 10.628906 0 18.261719-18.261719 42.542969-28.316406 68.371094-28.316406 25.824218 0 50.105468 10.054687 68.367187 28.316406 1.46875 1.46875 3.390625 2.203125 5.316407 2.203125zm0 0" data-original="#000000" class="active-path" data-old_color="#000000" fill="#5F7D95"/><path d="m253.601562 236.03125c-2.933593 2.933594-2.933593 7.691406 0 10.625 2.9375 2.933594 7.695313 2.933594 10.628907 0 4.636719-4.636719 10.800781-7.191406 17.359375-7.191406 6.554687 0 12.71875 2.554687 17.355468 7.191406 3.058594 3.054688 8.21875 2.851562 11.027344-.429688 2.519532-2.941406 2.335938-7.460937-.398437-10.195312-7.472657-7.476562-17.414063-11.59375-27.984375-11.59375-10.574219 0-20.511719 4.117188-27.988282 11.59375zm0 0" data-original="#000000" class="active-path" data-old_color="#000000" fill="#5F7D95"/></g> </svg>
